<svg xmlns="http://www.w3.org/2000/svg" xmlns:xlink="http://www.w3.org/1999/xlink" version="1.1" id="Layer_1" x="0px" y="0px" viewBox="0 0 13 22" style="enable-background:new 0 0 13 22;" xml:space="preserve">
<style type="text/css">
	.st0{filter:url(#Adobe_OpacityMaskFilter);}
	.st1{fill-rule:evenodd;clip-rule:evenodd;fill:#FFFFFF;}
	.st2{mask:url(#mask-2_00000049935394664173530770000009239494143011655554_);fill-rule:evenodd;clip-rule:evenodd;fill:#5F23CF;}
</style>
<g id="Symbols">
	<g id="Z">
		<g>
			<g id="Clip-2">
			</g>
			<defs>
				<filter id="Adobe_OpacityMaskFilter" filterUnits="userSpaceOnUse" x="0" y="0" width="12.9" height="22">
					<feColorMatrix type="matrix" values="1 0 0 0 0  0 1 0 0 0  0 0 1 0 0  0 0 0 1 0"/>
				</filter>
			</defs>
			
				<mask maskUnits="userSpaceOnUse" x="0" y="0" width="12.9" height="22" id="mask-2_00000049935394664173530770000009239494143011655554_">
				<g class="st0">
					<polygon id="path-1_00000106835099200100290500000010206653832203728822_" class="st1" points="6.4,22 0,22 0,0 6.4,0 12.9,0        12.9,22      "/>
				</g>
			</mask>
			<path id="Fill-1" class="st2" d="M7.9,22H5.3c-0.2,0-0.4-0.2-0.4-0.4V19H0.6C0.3,19,0,18.7,0,18.4v-2c0-0.1,0-0.3,0.1-0.4     l7.5-9.5H0.9c-0.3,0-0.6-0.3-0.6-0.6V3.6C0.3,3.2,0.6,3,0.9,3h3.9V0.4C4.8,0.2,5,0,5.3,0h2.6c0.2,0,0.4,0.2,0.4,0.4V3h4     c0.3,0,0.6,0.3,0.6,0.6v2c0,0.1,0,0.3-0.1,0.4l-7.5,9.6l7,0c0.3,0,0.6,0.3,0.6,0.6v2.3c0,0.3-0.3,0.6-0.6,0.6l-4,0v2.5     C8.3,21.8,8.1,22,7.9,22"/>
		</g>
	</g>
</g>
</svg>
